<svg viewBox="-2.4 -2.4 28.80 28.80" fill="none" xmlns="http://www.w3.org/2000/svg" stroke="#030712" stroke-width="0.00024000000000000003"><g id="SVGRepo_bgCarrier" stroke-width="0" transform="translate(0,0), scale(1)"><rect x="-2.4" y="-2.4" width="28.80" height="28.80" rx="14.4" fill="#1f2937" strokewidth="0"></rect></g><g id="SVGRepo_tracerCarrier" stroke-linecap="round" stroke-linejoin="round" stroke="#030712" stroke-width="0.336"> <path d="M18.7 8.97989L4.14 17.7099C4.05 17.3799 4 17.0299 4 16.6699V7.32989C4 4.24989 7.33 2.32989 10 3.86989L14.04 6.19989L18.09 8.53989C18.31 8.66989 18.52 8.80989 18.7 8.97989Z" fill="#6D28D9"></path> <path opacity="0.4" d="M18.0907 15.4598L14.0407 17.7998L10.0007 20.1298C8.0907 21.2298 5.8407 20.5698 4.7207 18.9598L5.1407 18.7098L19.5807 10.0498C20.5807 11.8498 20.0907 14.3098 18.0907 15.4598Z" fill="#6D28D9"></path> </g><g id="SVGRepo_iconCarrier"> <path d="M18.7 8.97989L4.14 17.7099C4.05 17.3799 4 17.0299 4 16.6699V7.32989C4 4.24989 7.33 2.32989 10 3.86989L14.04 6.19989L18.09 8.53989C18.31 8.66989 18.52 8.80989 18.7 8.97989Z" fill="#6D28D9"></path> <path opacity="0.4" d="M18.0907 15.4598L14.0407 17.7998L10.0007 20.1298C8.0907 21.2298 5.8407 20.5698 4.7207 18.9598L5.1407 18.7098L19.5807 10.0498C20.5807 11.8498 20.0907 14.3098 18.0907 15.4598Z" fill="#6D28D9"></path> </g></svg>